:SAMPLES-PER-SECOND 30
:FULLY-SPECIFIED
:DEGREES
145
root  -9.91 39.2471 13.6541 179.663 47.8096 172.28
RightUpLeg  -11.2966 -2.15405 -11.347
RightLeg  28.5142 -8.18296 -5.00003
RightFoot  -10.0631 -0.283614 19.5626
RightToes  2.32829e-010 0 -3.6325e-017
Spine  10.288 -0.717481 -2.51618
Spine1  22.5507 0.136589 -2.84665
HEad  -23.9778 34.5142 -22.6732
LeftShoulder1  0.804134 -0.188818 -14.8854
LeftArm  18.413 7.93307 -57.8141
LeftForeArm  68.2298 -79.2034 -76.1439
LeftHand  -1.36384 -3.08665 18.8133
RightShoulder  0.41885 -0.937243 8.99949
RightArm  8.96491 -14.154 62.7238
RightForeArm  130.048 68.8386 149.794
RightHand  -0.901549 3.54833 -11.9246
LeftUpLeg  -11.1722 -4.02054 2.62619
LeftLeg  22.132 6.21935 3.11527
LeftFoot  -7.26376 0.58311 -14.8661
LeftToes  -5.54824e-011 -8.71001e-011 8.3852e-012
146
root  -10.1749 38.7348 13.5582 177.664 46.9803 171.63
RightUpLeg  -12.7119 -3.16538 -12.8663
RightLeg  34.6146 -5.87555 -4.56326
RightFoot  -11.4483 -0.0651474 21.5352
RightToes  2.32829e-010 0 -3.6325e-017
Spine  10.704 -1.01277 -3.35361
Spine1  24.9093 -0.319749 -2.82689
HEad  -24.951 33.9875 -23.3035
LeftShoulder1  1.02585 -1.07902 -15.5896
LeftArm  16.3965 3.59127 -57.4119
LeftForeArm  50.044 -77.5257 -55.8877
LeftHand  -1.2804 -2.2578 19.5435
RightShoulder  0.416721 -1.01504 9.47618
RightArm  7.23816 -11.8561 62.8082
RightForeArm  127.363 70.1901 147.29
RightHand  -0.98379 3.50123 -13.0446
LeftUpLeg  -11.1596 -6.10259 1.49661
LeftLeg  25.5071 6.69805 3.8123
LeftFoot  -11.2191 0.0814195 -14.2138
LeftToes  -5.54824e-011 -8.71001e-011 8.3852e-012
147
root  -10.3022 38.5134 13.5172 176.442 46.909 170.829
RightUpLeg  -15.9683 -5.01326 -14.401
RightLeg  41.1203 -3.18224 -3.2707
RightFoot  -7.75435 -0.771156 22.706
RightToes  2.32829e-010 0 -3.6325e-017
Spine  10.8534 -0.875736 -4.46985
Spine1  26.3762 -0.343871 -2.93165
HEad  -25.3519 33.3792 -23.7672
LeftShoulder1  1.18228 -1.80912 -15.4433
LeftArm  14.2925 1.33199 -58.433
LeftForeArm  41.4721 -75.8116 -45.9477
LeftHand  -1.47744 -1.67089 24.1308
RightShoulder  0.437576 -0.924331 9.724
RightArm  6.08693 -11.7538 63.3964
RightForeArm  129.548 70.4773 147.073
RightHand  -1.06622 3.86315 -13.5849
LeftUpLeg  -11.2527 -6.70646 0.674755
LeftLeg  27.0563 6.81721 4.11383
LeftFoot  -12.4664 -0.0644723 -14.0222
LeftToes  -5.54824e-011 -8.71001e-011 8.3852e-012
148
root  -10.2051 38.6426 13.5612 176.187 47.3654 170.238
RightUpLeg  -19.5602 -6.16721 -15.0173
RightLeg  45.6016 -2.14765 -2.6809
RightFoot  -1.06364 -2.03314 22.3182
RightToes  2.32829e-010 0 -3.6325e-017
Spine  10.7893 -0.473845 -6.10232
Spine1  26.4539 -0.312126 -2.64073
HEad  -24.6887 33.3912 -23.8278
LeftShoulder1  1.1218 -1.65914 -14.8579
LeftArm  13.1397 1.84698 -59.7728
LeftForeArm  42.2131 -76.2231 -48.6
LeftHand  -1.88016 -1.67265 30.4624
RightShoulder  0.446544 -0.869538 9.70669
RightArm  6.43185 -13.3947 64.2455
RightForeArm  133.781 69.808 148.762
RightHand  -1.09785 4.28446 -13.3946
LeftUpLeg  -11.0365 -5.0031 0.655638
LeftLeg  26.1532 5.76054 3.4265
LeftFoot  -11.0358 0.106824 -14.7674
LeftToes  -5.54824e-011 -8.71001e-011 8.3852e-012
149
root  -9.95716 39.0287 13.6921 177.026 47.147 170.537
RightUpLeg  -21.5149 -6.50674 -14.4877
RightLeg  46.083 -2.48745 -3.0807
RightFoot  2.97964 -2.66805 21.1549
RightToes  2.32829e-010 0 -3.6325e-017
Spine  10.7025 -0.284445 -7.46022
Spine1  25.7155 -0.682909 -1.67058
HEad  -23.3468 33.8337 -23.4706
LeftShoulder1  0.930669 -0.877969 -14.3228
LeftArm  13.0664 3.63755 -60.4191
LeftForeArm  50.0555 -77.8659 -60.3529
LeftHand  -2.23441 -2.06528 34.1943
RightShoulder  0.436614 -0.939393 9.79435
RightArm  8.07387 -15.7791 64.5462
RightForeArm  137.613 68.5849 151.101
RightHand  -1.01839 4.33441 -12.3849
LeftUpLeg  -10.8154 -3.48839 1.49628
LeftLeg  23.9666 4.4741 2.51944
LeftFoot  -7.62373 0.55566 -15.6249
LeftToes  -5.54824e-011 -8.71001e-011 8.3852e-012
150
root  -9.66117 39.5606 13.8529 178.661 46.055 171.821
RightUpLeg  -21.313 -6.22582 -13.2484
RightLeg  42.1347 -3.82009 -3.96117
RightFoot  2.77213 -2.48877 20.0609
RightToes  2.32829e-010 0 -3.6325e-017
Spine  10.6746 -0.422143 -7.5045
Spine1  24.9125 -1.17306 -0.693494
HEad  -22.1327 34.1598 -22.8335
LeftShoulder1  0.777406 -0.24143 -13.7936
LeftArm  13.3499 5.05475 -60.2186
LeftForeArm  61.1328 -78.9061 -74.2847
LeftHand  -2.15617 -2.08477 32.8448
RightShoulder  0.442321 -0.926168 9.94259
RightArm  10.0202 -18.3577 64.1887
RightForeArm  141.133 67.3029 153.231
RightHand  -0.863794 4.10976 -10.7951
LeftUpLeg  -10.6358 -3.70962 2.92572
LeftLeg  21.2595 4.14155 2.11695
LeftFoot  -3.01273 1.21365 -16.3166
LeftToes  -5.54824e-011 -8.71001e-011 8.3852e-012
151
root  -9.32785 40.0351 13.9861 -179.452 45.0771 173.472
RightUpLeg  -20.0172 -5.17011 -11.8915
RightLeg  35.0265 -6.30305 -4.95415
RightFoot  1.81255 -2.31507 19.9985
RightToes  2.32829e-010 0 -3.6325e-017
Spine  10.403 -0.628767 -6.27604
Spine1  24.2213 -1.23447 -0.493006
HEad  -21.2492 34.3434 -21.9339
LeftShoulder1  0.721191 -0.0569104 -13.2393
LeftArm  13.6379 5.99802 -59.3597
LeftForeArm  71.1799 -79.2552 -84.5269
LeftHand  -1.77214 -1.83087 28.2191
RightShoulder  0.484899 -0.648334 9.73911
RightArm  11.6871 -20.7308 63.7477
RightForeArm  144.474 66.5486 154.521
RightHand  -0.701174 3.88992 -9.01891
LeftUpLeg  -10.7307 -4.30879 4.62325
LeftLeg  19.1888 4.42202 2.06367
LeftFoot  1.3068 1.87776 -16.9213
LeftToes  -5.54824e-011 -8.71001e-011 8.3852e-012
152
root  -8.93279 40.2245 14.0723 -177.689 44.6649 174.884
RightUpLeg  -18.7065 -3.98266 -10.8737
RightLeg  27.6347 -9.00868 -5.32574
RightFoot  2.32707 -2.56529 21.3005
RightToes  2.32829e-010 0 -3.6325e-017
Spine  9.67382 -0.773776 -4.7866
Spine1  23.2832 -0.951355 -0.954957
HEad  -20.181 34.6427 -20.6013
LeftShoulder1  0.714265 -0.0970325 -12.7761
LeftArm  14.1538 7.31063 -58.0626
LeftForeArm  80.9587 -79.3885 -92.1788
LeftHand  -1.56945 -2.12665 24.2176
RightShoulder  0.534304 -0.254343 9.11422
RightArm  13.1261 -22.4215 63.4019
RightForeArm  146.275 66.5545 154.716
RightHand  -0.561595 3.62212 -7.47954
LeftUpLeg  -11.618 -4.37997 6.22543
LeftLeg  19.3312 4.63999 2.14296
LeftFoot  3.34318 2.20311 -17.1513
LeftToes  -5.54824e-011 -8.71001e-011 8.3852e-012
153
root  -8.50639 40.0519 14.1353 -176.552 44.3012 175.964
RightUpLeg  -17.5818 -4.19051 -10.0646
RightLeg  23.25 -9.77518 -4.80001
RightFoot  2.05284 -2.67135 22.6296
RightToes  2.32829e-010 0 -3.6325e-017
Spine  9.04114 -0.884097 -3.58814
Spine1  21.9756 -0.77709 -1.25203
HEad  -18.7365 34.8807 -18.9398
LeftShoulder1  0.716684 -0.168559 -12.423
LeftArm  14.9236 9.05593 -56.7497
LeftForeArm  89.7422 -79.4166 -98.2253
LeftHand  -1.62975 -3.01785 22.5113
RightShoulder  0.547519 -0.064561 8.51248
RightArm  14.2726 -23.1285 62.7575
RightForeArm  145.314 66.9158 154.187
RightHand  -0.481026 3.20263 -6.73933
LeftUpLeg  -12.9089 -4.93565 7.55225
LeftLeg  21.8291 4.94403 2.51432
LeftFoot  2.14456 2.02021 -17.0814
LeftToes  -5.54824e-011 -8.71001e-011 8.3852e-012
154
root  -8.11329 39.5844 14.2371 -176.747 43.8819 176.922
RightUpLeg  -16.3504 -5.61108 -9.0572
RightLeg  23.3994 -8.2791 -4.11107
RightFoot  -1.70263 -1.92897 22.3635
RightToes  2.32829e-010 0 -3.6325e-017
Spine  9.30071 -0.804068 -2.57556
Spine1  21.029 -0.679634 -0.916868
HEad  -17.7357 34.6441 -17.7197
LeftShoulder1  0.730312 -0.248687 -12.3647
LeftArm  15.4273 9.95303 -55.7699
LeftForeArm  91.6253 -79.4813 -98.5779
LeftHand  -1.71518 -3.68972 21.965
RightShoulder  0.523468 -0.199661 8.43763
RightArm  14.6026 -22.4024 61.6134
RightForeArm  141.616 67.3228 153.264
RightHand  -0.513115 2.88514 -7.4152
LeftUpLeg  -13.4537 -6.32705 8.76021
LeftLeg  25.7859 5.33963 3.14351
LeftFoot  -1.34183 1.55582 -17.6191
LeftToes  -5.54824e-011 -8.71001e-011 8.3852e-012
155
root  -7.77068 38.9463 14.4221 -178.167 44.0265 178.059
RightUpLeg  -15.0464 -5.8701 -7.62583
RightLeg  26.7783 -7.33678 -4.25259
RightFoot  -7.60659 -0.723163 20.221
RightToes  2.32829e-010 0 -3.6325e-017
Spine  10.2837 -0.4535 -1.43133
Spine1  21.5381 -0.244665 -0.527714
HEad  -18.1175 34.0801 -17.8122
LeftShoulder1  0.771869 -0.335147 -13.075
LeftArm  14.914 8.79769 -55.168
LeftForeArm  79.2273 -79.5439 -86.1368
LeftHand  -1.69161 -3.63457 21.8086
RightShoulder  0.496653 -0.463125 8.99795
RightArm  13.703 -19.4269 60.4802
RightForeArm  135.251 68.2478 151.278
RightHand  -0.671242 2.88235 -9.61427
LeftUpLeg  -13.089 -7.26111 10.2151
LeftLeg  30.8636 4.91699 3.50269
LeftFoot  -5.10552 1.09204 -19.3653
LeftToes  -5.54824e-011 -8.71001e-011 8.3852e-012
156
root  -7.49583 38.353 14.6213 -179.411 44.7694 179.748
RightUpLeg  -14.0301 -4.47662 -5.57161
RightLeg  30.4951 -8.28242 -5.48583
RightFoot  -12.0207 0.0296417 17.7981
RightToes  2.32829e-010 0 -3.6325e-017
Spine  10.9937 -0.226253 0.53967
Spine1  23.5178 0.459861 -0.733748
HEad  -19.5305 33.8376 -19.0893
LeftShoulder1  0.870306 -0.541502 -14.6105
LeftArm  12.9561 6.32221 -55.0251
LeftForeArm  55.0175 -78.1382 -61.3043
LeftHand  -1.68319 -3.17047 22.8317
RightShoulder  0.505044 -0.541789 9.79915
RightArm  11.983 -14.3543 60.2249
RightForeArm  126.436 70.1756 147.147
RightHand  -0.897292 3.04333 -12.5416
LeftUpLeg  -12.8998 -7.17311 12.2862
LeftLeg  36.4525 3.39683 3.04182
LeftFoot  -7.19396 0.832953 -21.5007
LeftToes  -5.54824e-011 -8.71001e-011 8.3852e-012
157
root  -7.27551 37.9833 14.7397 -179.657 45.1571 -178.573
RightUpLeg  -13.5631 -3.78595 -3.7176
RightLeg  32.9029 -9.09256 -6.52937
RightFoot  -13.8635 0.27667 16.6537
RightToes  2.32829e-010 0 -3.6325e-017
Spine  10.9966 -0.501997 2.81948
Spine1  25.5412 0.920124 -1.5729
HEad  -20.5726 34.1409 -20.2671
LeftShoulder1  1.02378 -0.95174 -16.2227
LeftArm  9.97284 4.7744 -55.549
LeftForeArm  37.9765 -74.7377 -41.5871
LeftHand  -1.83336 -2.86743 25.6353
RightShoulder  0.551356 -0.351029 10.2934
RightArm  10.4164 -9.29977 61.0852
RightForeArm  117.729 72.3448 141.629
RightHand  -1.10094 3.24157 -14.9812
LeftUpLeg  -13.9609 -6.91256 14.3363
LeftLeg  41.4832 1.78103 2.08209
LeftFoot  -6.70697 0.968961 -22.6572
LeftToes  -5.54824e-011 -8.71001e-011 8.3852e-012
158
root  -7.08003 37.9371 14.7642 -179.425 44.7313 -177.868
RightUpLeg  -13.1446 -5.0402 -3.08573
RightLeg  33.1499 -8.44016 -6.15405
RightFoot  -14.1168 0.309035 16.6252
RightToes  2.32829e-010 0 -3.6325e-017
Spine  10.7538 -0.923197 4.13999
Spine1  26.2147 1.05413 -2.49619
HEad  -20.3558 34.4213 -20.0017
LeftShoulder1  1.13285 -1.24117 -17.2084
LeftArm  7.54213 5.57074 -56.5675
LeftForeArm  33.9621 -72.705 -35.1046
LeftHand  -2.11636 -2.88338 29.3605
RightShoulder  0.578754 -0.202166 10.3345
RightArm  9.57721 -6.64287 62.2162
RightForeArm  114.48 73.2578 138.885
RightHand  -1.2288 3.52137 -16.1702
LeftUpLeg  -15.8252 -6.89405 15.2478
LeftLeg  44.6156 1.39795 1.89535
LeftFoot  -3.65383 1.52527 -22.2016
LeftToes  -5.54824e-011 -8.71001e-011 8.3852e-012
159
root  -6.90422 38.1679 14.7419 -179.278 44.1922 -178.264
RightUpLeg  -12.6092 -6.5427 -3.44271
RightLeg  31.6904 -7.45829 -5.19268
RightFoot  -13.2068 0.185151 16.7746
RightToes  2.32829e-010 0 -3.6325e-017
Spine  10.6831 -0.81927 4.08141
Spine1  25.5488 1.31949 -2.91495
HEad  -19.328 34.0329 -18.2432
LeftShoulder1  1.0933 -1.0056 -17.6017
LeftArm  7.60346 8.21783 -57.2783
LeftForeArm  37.7674 -74.1294 -39.3899
LeftHand  -2.39956 -3.19247 31.981
RightShoulder  0.539061 -0.408842 10.2141
RightArm  9.36853 -6.79205 62.4805
RightForeArm  119.008 72.2411 142.003
RightHand  -1.2638 3.78715 -16.1517
LeftUpLeg  -17.2773 -6.3104 14.8269
LeftLeg  45.3675 2.60056 3.22056
LeftFoot  0.458257 2.1381 -20.5471
LeftToes  -5.54824e-011 -8.71001e-011 8.3852e-012
